<svg width="25" height="25" viewBox="0 0 25 25" fill="none" xmlns="http://www.w3.org/2000/svg">
<path fill-rule="evenodd" clip-rule="evenodd" d="M12.0798 0.533295C5.47446 0.533295 0.119751 5.88865 0.119751 12.4948C0.119751 19.101 5.47446 24.4563 12.0798 24.4563C18.6852 24.4563 24.0399 19.101 24.0399 12.4948C24.0399 5.88865 18.6852 0.533295 12.0798 0.533295ZM17.2314 9.8383H13.853V8.87028H17.2314V9.8383ZM16.9336 10.6509C16.5271 10.4711 16.0703 10.3808 15.5625 10.3808C14.7081 10.3808 14.0143 10.6479 13.478 11.1786C12.9432 11.7107 12.6754 12.4752 12.6754 13.4721C12.6754 14.5348 12.9709 15.303 13.5658 15.7745C14.1576 16.2466 14.8424 16.482 15.6187 16.482C16.5586 16.482 17.2899 16.2022 17.812 15.6435C18.1465 15.2912 18.3356 14.9441 18.3768 14.6037H16.8204C16.7304 14.7724 16.6254 14.9041 16.5061 14.9996C16.2893 15.175 16.0065 15.2631 15.6607 15.2631C15.3322 15.2631 15.0524 15.1905 14.8199 15.0462C14.4359 14.8146 14.2348 14.4098 14.2093 13.8332H18.4571C18.4638 13.3367 18.4473 12.9548 18.4061 12.6913C18.3356 12.2406 18.181 11.8439 17.9403 11.502C17.6762 11.1142 17.3409 10.83 16.9336 10.6509ZM9.5108 8.50764C10.4724 8.5217 11.1527 8.79775 11.554 9.33653C11.7948 9.66734 11.9156 10.0625 11.9156 10.5236C11.9156 10.998 11.7948 11.3806 11.551 11.6693C11.4145 11.8306 11.2142 11.9786 10.9495 12.1118C11.3515 12.2569 11.6545 12.4856 11.8608 12.7986C12.0648 13.1109 12.1676 13.4913 12.1676 13.9383C12.1676 14.3994 12.0506 14.8131 11.8158 15.1787C11.6673 15.4207 11.4813 15.625 11.2577 15.7908C11.0065 15.981 10.7102 16.1105 10.3674 16.1815C10.0246 16.2518 9.65407 16.2859 9.25352 16.2859H5.70112V8.50764H9.5108Z" fill="#CE4115"/>
<path fill-rule="evenodd" clip-rule="evenodd" d="M7.27252 9.85828H8.98872C9.36601 9.85828 9.67654 9.89898 9.92107 9.97965C10.2031 10.0966 10.3441 10.3356 10.3441 10.699C10.3441 11.0246 10.2369 11.2526 10.0238 11.3814C9.80931 11.5101 9.53103 11.5745 9.18974 11.5745H7.27252V9.85828ZM14.6534 11.9505C14.8686 11.7314 15.1732 11.6219 15.5632 11.6219C15.9233 11.6219 16.224 11.7248 16.4686 11.9312C16.7101 12.1392 16.8466 12.4412 16.8744 12.8408H14.2468C14.3023 12.4663 14.4381 12.1695 14.6534 11.9505ZM9.21374 12.8615H7.27252V14.936H9.18674C9.52878 14.936 9.79581 14.8901 9.98558 14.799C10.3314 14.6288 10.5039 14.3061 10.5039 13.8281C10.5039 13.4225 10.3374 13.145 10.0021 12.9932C9.81456 12.9089 9.55128 12.8645 9.21374 12.8615Z" fill="#CE4115"/>
</svg>
