<svg width="25" height="25" viewBox="0 0 25 25" fill="none" xmlns="http://www.w3.org/2000/svg">
<path fill-rule="evenodd" clip-rule="evenodd" d="M12.2396 24.4563C5.63419 24.4563 0.27948 19.101 0.27948 12.4948C0.27948 5.88865 5.63419 0.533295 12.2396 0.533295C18.8449 0.533295 24.1996 5.88865 24.1996 12.4948C24.1996 19.101 18.8449 24.4563 12.2396 24.4563ZM12.4062 11.8235C13.3855 11.8235 18.147 9.14559 18.147 9.14559L18.1547 8.66713C18.1547 8.13891 17.726 7.71021 17.1964 7.71021H7.61595C7.08684 7.71021 6.65819 8.13891 6.65819 8.66713V9.09344C6.65819 9.09344 11.4719 11.8235 12.4062 11.8235ZM6.66584 10.581C6.66536 10.581 11.4719 13.1393 12.4062 13.1393C13.4305 13.1393 18.147 10.581 18.147 10.581L18.1547 16.3225C18.1547 16.8507 17.726 17.2794 17.1964 17.2794H7.61595C7.08731 17.2794 6.65819 16.8507 6.65819 16.3225L6.66584 10.581Z" fill="#CE4115"/>
</svg>
