<svg width="25" height="25" viewBox="0 0 25 25" fill="none" xmlns="http://www.w3.org/2000/svg">
<path fill-rule="evenodd" clip-rule="evenodd" d="M12.1597 0.533295C5.55435 0.533295 0.199646 5.88865 0.199646 12.4948C0.199646 19.101 5.55435 24.4563 12.1597 24.4563C18.7651 24.4563 24.1198 19.101 24.1198 12.4948C24.1198 5.88865 18.7651 0.533295 12.1597 0.533295ZM9.53014 6.15388C10.2105 6.12291 10.4279 6.11534 12.1603 6.11534H12.1583C13.8912 6.11534 14.1078 6.12291 14.7882 6.15388C15.4673 6.18498 15.9311 6.2925 16.3377 6.45026C16.7577 6.61307 17.1125 6.83104 17.4673 7.1859C17.8221 7.5405 18.0401 7.89643 18.2035 8.31601C18.3604 8.72165 18.468 9.18523 18.4999 9.86438C18.5305 10.5449 18.5384 10.7623 18.5384 12.4949C18.5384 14.2275 18.5305 14.4444 18.4999 15.1248C18.468 15.8037 18.3604 16.2675 18.2035 16.6732C18.0401 17.0927 17.8221 17.4486 17.4673 17.8032C17.1129 18.1581 16.7576 18.3766 16.3381 18.5395C15.9323 18.6973 15.4682 18.8048 14.7892 18.8359C14.1088 18.8668 13.892 18.8744 12.1595 18.8744C10.4273 18.8744 10.21 18.8668 9.52961 18.8359C8.85067 18.8048 8.38701 18.6973 7.98116 18.5395C7.56189 18.3766 7.20601 18.1581 6.85158 17.8032C6.4969 17.4486 6.27896 17.0927 6.1159 16.6731C5.95829 16.2675 5.85078 15.8039 5.81955 15.1247C5.78872 14.4442 5.78101 14.2275 5.78101 12.4949C5.78101 10.7623 5.78899 10.5447 5.81942 9.86425C5.84998 9.18536 5.95763 8.72165 6.11577 8.31588C6.27922 7.89643 6.49716 7.5405 6.85198 7.1859C7.20654 6.83117 7.56242 6.61321 7.98196 6.45026C8.38754 6.2925 8.85106 6.18498 9.53014 6.15388Z" fill="#CE4115"/>
<path fill-rule="evenodd" clip-rule="evenodd" d="M11.5881 7.26499C11.6992 7.26482 11.8187 7.26487 11.9477 7.26493L12.1603 7.26499C13.8634 7.26499 14.0653 7.27111 14.7379 7.30167C15.3598 7.33012 15.6973 7.43405 15.9222 7.52137C16.2199 7.637 16.4321 7.77522 16.6552 7.99851C16.8785 8.22179 17.0167 8.43444 17.1325 8.73215C17.2199 8.95677 17.3239 9.29435 17.3522 9.91636C17.3828 10.5889 17.3894 10.7909 17.3894 12.4934C17.3894 14.196 17.3828 14.398 17.3522 15.0705C17.3238 15.6925 17.2199 16.0301 17.1325 16.2547C17.0169 16.5524 16.8785 16.7644 16.6552 16.9875C16.4319 17.2108 16.22 17.3491 15.9222 17.4647C15.6976 17.5524 15.3598 17.6561 14.7379 17.6845C14.0654 17.7151 13.8634 17.7217 12.1603 17.7217C10.457 17.7217 10.2552 17.7151 9.58274 17.6845C8.96081 17.6558 8.62327 17.5519 8.39828 17.4646C8.1006 17.3489 7.88798 17.2107 7.66472 16.9874C7.44147 16.7641 7.30326 16.552 7.18738 16.2542C7.10007 16.0296 6.99601 15.692 6.96771 15.07C6.93714 14.3975 6.93103 14.1954 6.93103 12.4918C6.93103 10.7882 6.93714 10.5873 6.96771 9.91476C6.99615 9.29276 7.10007 8.95517 7.18738 8.73029C7.30299 8.43258 7.44147 8.21993 7.66472 7.99665C7.88798 7.77336 8.1006 7.63514 8.39828 7.51924C8.62313 7.43152 8.96081 7.32786 9.58274 7.29928C10.1712 7.2727 10.3992 7.26473 11.5881 7.2634V7.26499ZM15.5652 8.32426C15.1426 8.32426 14.7998 8.66676 14.7998 9.08954C14.7998 9.51219 15.1426 9.85509 15.5652 9.85509C15.9878 9.85509 16.3307 9.51219 16.3307 9.08954C16.3307 8.6669 15.9878 8.324 15.5652 8.324V8.32426ZM8.88453 12.4949C8.88453 10.6857 10.3512 9.2188 12.1602 9.21873C13.9692 9.21873 15.4355 10.6856 15.4355 12.4949C15.4355 14.3042 13.9693 15.7704 12.1603 15.7704C10.3512 15.7704 8.88453 14.3042 8.88453 12.4949Z" fill="#CE4115"/>
<path d="M12.1603 10.3684C13.3345 10.3684 14.2866 11.3204 14.2866 12.4949C14.2866 13.6692 13.3345 14.6214 12.1603 14.6214C10.986 14.6214 10.0341 13.6692 10.0341 12.4949C10.0341 11.3204 10.986 10.3684 12.1603 10.3684Z" fill="#CE4115"/>
</svg>
