<svg width="24" height="25" viewBox="0 0 24 25" fill="none" xmlns="http://www.w3.org/2000/svg">
<path fill-rule="evenodd" clip-rule="evenodd" d="M12 0.533295C5.39462 0.533295 0.039917 5.88865 0.039917 12.4948C0.039917 19.101 5.39462 24.4563 12 24.4563C18.6054 24.4563 23.9601 19.101 23.9601 12.4948C23.9601 5.88865 18.6054 0.533295 12 0.533295ZM5.78156 10.4403H8.49197V18.585H5.78156V10.4403ZM8.67049 7.92088C8.6529 7.1223 8.0819 6.51405 7.15468 6.51405C6.22747 6.51405 5.62128 7.1223 5.62128 7.92088C5.62128 8.70291 6.20955 9.32867 7.1195 9.32867H7.13682C8.0819 9.32867 8.67049 8.70291 8.67049 7.92088ZM15.1461 10.2491C16.9296 10.2491 18.2668 11.4134 18.2668 13.9151L18.2667 18.585H15.5563V14.2276C15.5563 13.1331 15.1641 12.3863 14.183 12.3863C13.4341 12.3863 12.9881 12.8898 12.7922 13.3761C12.7206 13.5503 12.703 13.7932 12.703 14.0366V18.5852H9.99224C9.99224 18.5852 10.028 11.2048 9.99224 10.4406H12.703V11.5942C13.0627 11.0396 13.707 10.2491 15.1461 10.2491Z" fill="#CE4115"/>
</svg>
