<svg width="25" height="25" viewBox="0 0 25 25" fill="none" xmlns="http://www.w3.org/2000/svg">
<path fill-rule="evenodd" clip-rule="evenodd" d="M0.960083 12.4948C0.960083 19.101 6.31479 24.4563 12.9202 24.4563C19.5255 24.4563 24.8802 19.101 24.8802 12.4948C24.8802 5.88865 19.5255 0.533295 12.9202 0.533295C6.31479 0.533295 0.960083 5.88865 0.960083 12.4948ZM20.4262 12.037C20.4246 15.9578 17.2355 19.1481 13.3144 19.1497H13.3114C12.1212 19.1493 10.9516 18.8506 9.91287 18.2839L6.14278 19.273L7.15172 15.5873C6.52936 14.5086 6.20187 13.285 6.20241 12.0314C6.20397 8.10977 9.39434 4.91919 13.3143 4.91919C15.2168 4.92001 17.0024 5.66073 18.3451 7.00518C19.6879 8.34956 20.4269 10.1366 20.4262 12.037Z" fill="#CE4115"/>
<path fill-rule="evenodd" clip-rule="evenodd" d="M7.8503 17.5832L10.0875 16.9963L10.3034 17.1244C11.2109 17.663 12.2513 17.948 13.312 17.9484H13.3144C16.5724 17.9484 19.224 15.2964 19.2253 12.0366C19.226 10.457 18.6117 8.9717 17.4957 7.85424C16.3797 6.73679 14.8955 6.12109 13.3167 6.12054C10.0562 6.12054 7.40443 8.77235 7.40314 12.0318C7.40268 13.1489 7.71519 14.2368 8.3069 15.178L8.44745 15.4017L7.8503 17.5832ZM16.6539 13.5684C16.7778 13.6283 16.8615 13.6688 16.8972 13.7284C16.9417 13.8025 16.9417 14.1584 16.7936 14.5736C16.6455 14.9887 15.9356 15.3676 15.5941 15.4186C15.288 15.4644 14.9006 15.4835 14.4749 15.3482C14.2168 15.2663 13.8858 15.1569 13.4619 14.9738C11.796 14.2544 10.6702 12.6395 10.4574 12.3343C10.4425 12.313 10.432 12.298 10.4262 12.2902L10.4248 12.2883C10.3308 12.1628 9.70064 11.322 9.70064 10.4518C9.70064 9.63315 10.1027 9.20406 10.2878 9.00655C10.3005 8.99302 10.3121 8.98057 10.3226 8.96916C10.4855 8.79124 10.678 8.74675 10.7964 8.74675C10.9149 8.74675 11.0335 8.74785 11.137 8.75305C11.1498 8.75369 11.1631 8.75361 11.1768 8.75353C11.2804 8.75293 11.4095 8.75217 11.5368 9.05813C11.5858 9.17588 11.6575 9.35044 11.7331 9.53455C11.8861 9.90686 12.055 10.3182 12.0847 10.3777C12.1292 10.4667 12.1588 10.5704 12.0995 10.6891C12.0906 10.7069 12.0824 10.7237 12.0746 10.7397C12.0301 10.8306 11.9973 10.8974 11.9218 10.9856C11.8922 11.0202 11.8615 11.0576 11.8308 11.095C11.7696 11.1694 11.7085 11.2439 11.6553 11.2969C11.5663 11.3856 11.4737 11.4817 11.5774 11.6596C11.681 11.8376 12.0377 12.4195 12.5659 12.8908C13.1338 13.3974 13.6274 13.6115 13.8775 13.72C13.9264 13.7412 13.9659 13.7584 13.995 13.7729C14.1726 13.8619 14.2763 13.847 14.3799 13.7284C14.4836 13.6098 14.8242 13.2095 14.9426 13.0316C15.061 12.8537 15.1796 12.8833 15.3424 12.9426C15.5053 13.002 16.379 13.4319 16.5567 13.5208C16.5914 13.5382 16.6238 13.5539 16.6539 13.5684Z" fill="#CE4115"/>
</svg>
